{
  "accessors": [
    {
      "bufferView": 2,
      "componentType": 5126,
      "count": 508,
      "max": [
        543.1575317382813,
        1161.499755859375,
        70.1927719116211
      ],
      "min": [
        -517.8086547851563,
        -1001.4996948242188,
        -116.21488952636719
      ],
      "type": "VEC3"
    },
    {
      "bufferView": 2,
      "byteOffset": 6096,
      "componentType": 5126,
      "count": 508,
      "type": "VEC3"
    },
    {
      "bufferView": 3,
      "componentType": 5126,
      "count": 508,
      "type": "VEC4"
    },
    {
      "bufferView": 1,
      "componentType": 5126,
      "count": 508,
      "type": "VEC2"
    },
    {
      "bufferView": 0,
      "componentType": 5125,
      "count": 846,
      "type": "SCALAR"
    },
    {
      "bufferView": 2,
      "byteOffset": 12192,
      "componentType": 5126,
      "count": 1588,
      "max": [
        0.5400000214576721,
        2.4000000953674316,
        0.03280999884009361
      ],
      "min": [
        -0.5557010173797607,
        0.0,
        -0.03280999884009361
      ],
      "type": "VEC3"
    },
    {
      "bufferView": 2,
      "byteOffset": 31248,
      "componentType": 5126,
      "count": 1588,
      "type": "VEC3"
    },
    {
      "bufferView": 3,
      "byteOffset": 8128,
      "componentType": 5126,
      "count": 1588,
      "type": "VEC4"
    },
    {
      "bufferView": 2,
      "byteOffset": 50304,
      "componentType": 5126,
      "count": 1588,
      "type": "VEC3"
    },
    {
      "bufferView": 1,
      "byteOffset": 4064,
      "componentType": 5126,
      "count": 1588,
      "type": "VEC2"
    },
    {
      "bufferView": 0,
      "byteOffset": 3384,
      "componentType": 5125,
      "count": 2700,
      "type": "SCALAR"
    },
    {
      "bufferView": 2,
      "byteOffset": 69360,
      "componentType": 5126,
      "count": 65532,
      "max": [
        -0.3943459987640381,
        1.4338879585266113,
        0.039218999445438385
      ],
      "min": [
        -0.46138501167297363,
        1.0729060173034668,
        -0.032944999635219574
      ],
      "type": "VEC3"
    },
    {
      "bufferView": 2,
      "byteOffset": 855744,
      "componentType": 5126,
      "count": 65532,
      "type": "VEC3"
    },
    {
      "bufferView": 3,
      "byteOffset": 33536,
      "componentType": 5126,
      "count": 65532,
      "type": "VEC4"
    },
    {
      "bufferView": 2,
      "byteOffset": 1642128,
      "componentType": 5126,
      "count": 65532,
      "type": "VEC3"
    },
    {
      "bufferView": 1,
      "byteOffset": 16768,
      "componentType": 5126,
      "count": 65532,
      "type": "VEC2"
    },
    {
      "bufferView": 0,
      "byteOffset": 14184,
      "componentType": 5125,
      "count": 373884,
      "type": "SCALAR"
    },
    {
      "bufferView": 2,
      "byteOffset": 2428512,
      "componentType": 5126,
      "count": 65532,
      "max": [
        -0.39437100291252136,
        1.4338879585266113,
        0.11821000277996063
      ],
      "min": [
        -0.4614099860191345,
        1.0729060173034668,
        0.031108999624848366
      ],
      "type": "VEC3"
    },
    {
      "bufferView": 2,
      "byteOffset": 3214896,
      "componentType": 5126,
      "count": 65532,
      "type": "VEC3"
    },
    {
      "bufferView": 3,
      "byteOffset": 1082048,
      "componentType": 5126,
      "count": 65532,
      "type": "VEC4"
    },
    {
      "bufferView": 2,
      "byteOffset": 4001280,
      "componentType": 5126,
      "count": 65532,
      "type": "VEC3"
    },
    {
      "bufferView": 1,
      "byteOffset": 541024,
      "componentType": 5126,
      "count": 65532,
      "type": "VEC2"
    },
    {
      "bufferView": 0,
      "byteOffset": 1509720,
      "componentType": 5125,
      "count": 380313,
      "type": "SCALAR"
    },
    {
      "bufferView": 2,
      "byteOffset": 4787664,
      "componentType": 5126,
      "count": 65532,
      "max": [
        -0.38975799083709717,
        1.4320420026779175,
        0.1563909947872162
      ],
      "min": [
        -0.4616450071334839,
        1.0729470252990723,
        -0.15011699497699738
      ],
      "type": "VEC3"
    },
    {
      "bufferView": 2,
      "byteOffset": 5574048,
      "componentType": 5126,
      "count": 65532,
      "type": "VEC3"
    },
    {
      "bufferView": 3,
      "byteOffset": 2130560,
      "componentType": 5126,
      "count": 65532,
      "type": "VEC4"
    },
    {
      "bufferView": 2,
      "byteOffset": 6360432,
      "componentType": 5126,
      "count": 65532,
      "type": "VEC3"
    },
    {
      "bufferView": 1,
      "byteOffset": 1065280,
      "componentType": 5126,
      "count": 65532,
      "type": "VEC2"
    },
    {
      "bufferView": 0,
      "byteOffset": 3030972,
      "componentType": 5125,
      "count": 379671,
      "type": "SCALAR"
    },
    {
      "bufferView": 2,
      "byteOffset": 7146816,
      "componentType": 5126,
      "count": 13278,
      "max": [
        -0.3953779935836792,
        1.4301199913024902,
        -0.024834999814629555
      ],
      "min": [
        -0.46138501167297363,
        1.0729060173034668,
        -0.032944999635219574
      ],
      "type": "VEC3"
    },
    {
      "bufferView": 2,
      "byteOffset": 7306152,
      "componentType": 5126,
      "count": 13278,
      "type": "VEC3"
    },
    {
      "bufferView": 3,
      "byteOffset": 3179072,
      "componentType": 5126,
      "count": 13278,
      "type": "VEC4"
    },
    {
      "bufferView": 2,
      "byteOffset": 7465488,
      "componentType": 5126,
      "count": 13278,
      "type": "VEC3"
    },
    {
      "bufferView": 1,
      "byteOffset": 1589536,
      "componentType": 5126,
      "count": 13278,
      "type": "VEC2"
    },
    {
      "bufferView": 0,
      "byteOffset": 4549656,
      "componentType": 5125,
      "count": 73512,
      "type": "SCALAR"
    },
    {
      "bufferView": 2,
      "byteOffset": 7624824,
      "componentType": 5126,
      "count": 1344,
      "max": [
        -0.42507100105285645,
        1.414005994796753,
        0.0392099991440773
      ],
      "min": [
        -0.43068400025367737,
        1.0901240110397339,
        -0.03293599933385849
      ],
      "type": "VEC3"
    },
    {
      "bufferView": 2,
      "byteOffset": 7640952,
      "componentType": 5126,
      "count": 1344,
      "type": "VEC3"
    },
    {
      "bufferView": 3,
      "byteOffset": 3391520,
      "componentType": 5126,
      "count": 1344,
      "type": "VEC4"
    },
    {
      "bufferView": 2,
      "byteOffset": 7657080,
      "componentType": 5126,
      "count": 1344,
      "type": "VEC3"
    },
    {
      "bufferView": 1,
      "byteOffset": 1695760,
      "componentType": 5126,
      "count": 1344,
      "type": "VEC2"
    },
    {
      "bufferView": 0,
      "byteOffset": 4843704,
      "componentType": 5125,
      "count": 2832,
      "type": "SCALAR"
    }
  ],
  "asset": {
    "generator": "fab-model-conversion",
    "version": "2.0"
  },
  "bufferViews": [
    {
      "buffer": 0,
      "byteLength": 4855032,
      "target": 34963
    },
    {
      "buffer": 0,
      "byteLength": 1706512,
      "byteOffset": 4855032,
      "byteStride": 8,
      "target": 34962
    },
    {
      "buffer": 0,
      "byteLength": 7673208,
      "byteOffset": 6561544,
      "byteStride": 12,
      "target": 34962
    },
    {
      "buffer": 0,
      "byteLength": 3413024,
      "byteOffset": 14234752,
      "byteStride": 16,
      "target": 34962
    }
  ],
  "buffers": [
    {
      "byteLength": 17647776,
      "uri": "scene.bin"
    }
  ],
  "extensionsUsed": [
    "KHR_materials_clearcoat"
  ],
  "images": [
    {
      "uri": "textures/DOOR_001_baseColor.jpeg"
    },
    {
      "uri": "textures/DOOR_001_metallicRoughness.jpeg"
    },
    {
      "uri": "textures/DOOR_001_normal.png"
    },
    {
      "uri": "textures/Material_002_baseColor.jpeg"
    },
    {
      "uri": "textures/Material_002_metallicRoughness.jpeg"
    },
    {
      "uri": "textures/Material_002_normal.png"
    },
    {
      "uri": "textures/Material_004_baseColor.jpeg"
    },
    {
      "uri": "textures/Material_004_metallicRoughness.jpeg"
    },
    {
      "uri": "textures/Material_004_normal.png"
    },
    {
      "uri": "textures/cadre_baseColor.jpeg"
    },
    {
      "uri": "textures/cadre_metallicRoughness.jpeg"
    },
    {
      "uri": "textures/cadre_normal.png"
    }
  ],
  "materials": [
    {
      "doubleSided": true,
      "name": "DOOR_001",
      "normalTexture": {
        "index": 2
      },
      "occlusionTexture": {
        "index": 1
      },
      "pbrMetallicRoughness": {
        "baseColorTexture": {
          "index": 0
        },
        "metallicRoughnessTexture": {
          "index": 1
        }
      }
    },
    {
      "doubleSided": true,
      "extensions": {
        "KHR_materials_clearcoat": {
          "clearcoatFactor": 1.0,
          "clearcoatRoughnessFactor": 0.04
        }
      },
      "name": "Material_002",
      "normalTexture": {
        "index": 5
      },
      "occlusionTexture": {
        "index": 4
      },
      "pbrMetallicRoughness": {
        "baseColorTexture": {
          "index": 3
        },
        "metallicRoughnessTexture": {
          "index": 4
        }
      }
    },
    {
      "doubleSided": true,
      "name": "Material_004",
      "normalTexture": {
        "index": 8
      },
      "occlusionTexture": {
        "index": 7
      },
      "pbrMetallicRoughness": {
        "baseColorTexture": {
          "index": 6
        },
        "metallicRoughnessTexture": {
          "index": 7
        }
      }
    },
    {
      "doubleSided": true,
      "name": "cadre",
      "normalTexture": {
        "index": 11
      },
      "occlusionTexture": {
        "index": 10
      },
      "pbrMetallicRoughness": {
        "baseColorTexture": {
          "index": 9
        },
        "metallicRoughnessTexture": {
          "index": 10
        }
      }
    }
  ],
  "meshes": [
    {
      "name": "defaultMaterial",
      "primitives": [
        {
          "attributes": {
            "NORMAL": 1,
            "POSITION": 0,
            "TANGENT": 2,
            "TEXCOORD_0": 3
          },
          "indices": 4,
          "material": 3,
          "mode": 4
        }
      ]
    },
    {
      "name": "defaultMaterial",
      "primitives": [
        {
          "attributes": {
            "COLOR_0": 8,
            "NORMAL": 6,
            "POSITION": 5,
            "TANGENT": 7,
            "TEXCOORD_0": 9
          },
          "indices": 10,
          "material": 0,
          "mode": 4
        }
      ]
    },
    {
      "name": "defaultMaterial",
      "primitives": [
        {
          "attributes": {
            "COLOR_0": 14,
            "NORMAL": 12,
            "POSITION": 11,
            "TANGENT": 13,
            "TEXCOORD_0": 15
          },
          "indices": 16,
          "material": 1,
          "mode": 4
        }
      ]
    },
    {
      "name": "defaultMaterial",
      "primitives": [
        {
          "attributes": {
            "COLOR_0": 20,
            "NORMAL": 18,
            "POSITION": 17,
            "TANGENT": 19,
            "TEXCOORD_0": 21
          },
          "indices": 22,
          "material": 1,
          "mode": 4
        }
      ]
    },
    {
      "name": "defaultMaterial",
      "primitives": [
        {
          "attributes": {
            "COLOR_0": 26,
            "NORMAL": 24,
            "POSITION": 23,
            "TANGENT": 25,
            "TEXCOORD_0": 27
          },
          "indices": 28,
          "material": 1,
          "mode": 4
        }
      ]
    },
    {
      "name": "defaultMaterial",
      "primitives": [
        {
          "attributes": {
            "COLOR_0": 32,
            "NORMAL": 30,
            "POSITION": 29,
            "TANGENT": 31,
            "TEXCOORD_0": 33
          },
          "indices": 34,
          "material": 1,
          "mode": 4
        }
      ]
    },
    {
      "name": "defaultMaterial",
      "primitives": [
        {
          "attributes": {
            "COLOR_0": 38,
            "NORMAL": 36,
            "POSITION": 35,
            "TANGENT": 37,
            "TEXCOORD_0": 39
          },
          "indices": 40,
          "material": 2,
          "mode": 4
        }
      ]
    }
  ],
  "nodes": [
    {
      "children": [
        1
      ],
      "matrix": [
        1.0,
        0.0,
        0.0,
        0.0,
        0.0,
        2.220446049250313e-16,
        -1.0,
        0.0,
        0.0,
        1.0,
        2.220446049250313e-16,
        0.0,
        0.0,
        0.0,
        0.0,
        1.0
      ],
      "name": "Sketchfab_model"
    },
    {
      "children": [
        2,
        4
      ],
      "matrix": [
        1.0,
        0.0,
        0.0,
        0.0,
        0.0,
        -4.371139006309477e-08,
        0.999999999999999,
        0.0,
        0.0,
        -0.999999999999999,
        -4.371139006309477e-08,
        0.0,
        0.0,
        0.0,
        0.0,
        1.0
      ],
      "name": "Collada visual scene group"
    },
    {
      "children": [
        3
      ],
      "matrix": [
        -0.254101,
        0.0,
        0.00133,
        0.0,
        0.0,
        0.243884,
        0.0,
        0.0,
        -0.0012979999999999999,
        0.0,
        -0.247982,
        0.0,
        -0.534236,
        247.74408,
        10.269763,
        1.0
      ],
      "name": "cadre"
    },
    {
      "mesh": 0,
      "name": "defaultMaterial"
    },
    {
      "children": [
        5,
        6,
        7,
        8,
        9,
        10
      ],
      "matrix": [
        210.176773,
        0.0,
        -9e-06,
        0.0,
        0.0,
        210.176773,
        5.9e-05,
        0.0,
        9e-06,
        -5.9e-05,
        210.176773,
        0.0,
        0.0,
        0.0,
        0.0,
        1.0
      ],
      "name": "door"
    },
    {
      "mesh": 1,
      "name": "defaultMaterial"
    },
    {
      "mesh": 2,
      "name": "defaultMaterial"
    },
    {
      "mesh": 3,
      "name": "defaultMaterial"
    },
    {
      "mesh": 4,
      "name": "defaultMaterial"
    },
    {
      "mesh": 5,
      "name": "defaultMaterial"
    },
    {
      "mesh": 6,
      "name": "defaultMaterial"
    }
  ],
  "samplers": [
    {
      "magFilter": 9729,
      "minFilter": 9987,
      "wrapS": 10497,
      "wrapT": 10497
    }
  ],
  "scene": 0,
  "scenes": [
    {
      "name": "Sketchfab_Scene",
      "nodes": [
        0
      ]
    }
  ],
  "textures": [
    {
      "sampler": 0,
      "source": 0
    },
    {
      "sampler": 0,
      "source": 1
    },
    {
      "sampler": 0,
      "source": 2
    },
    {
      "sampler": 0,
      "source": 3
    },
    {
      "sampler": 0,
      "source": 4
    },
    {
      "sampler": 0,
      "source": 5
    },
    {
      "sampler": 0,
      "source": 6
    },
    {
      "sampler": 0,
      "source": 7
    },
    {
      "sampler": 0,
      "source": 8
    },
    {
      "sampler": 0,
      "source": 9
    },
    {
      "sampler": 0,
      "source": 10
    },
    {
      "sampler": 0,
      "source": 11
    }
  ]
}
